<svg xmlns="http://www.w3.org/2000/svg" viewBox="0 0 1600 900" width="1600" height="900" role="img" aria-label="NovaTech custom island booth at TechForward Expo"><defs><linearGradient id="g1" x1="0" y1="0" x2="0" y2="1"><stop offset="0" stop-color="#181c24" stop-opacity="1"/><stop offset="1" stop-color="#090b0e" stop-opacity="1"/></linearGradient><radialGradient id="r2"><stop offset="0" stop-color="#ffffff" stop-opacity="0.2"/><stop offset="1" stop-color="#ffffff" stop-opacity="0"/></radialGradient><radialGradient id="r3"><stop offset="0.55" stop-color="#000" stop-opacity="0"/><stop offset="1" stop-color="#000" stop-opacity="0.45"/></radialGradient><linearGradient id="g4" x1="0" y1="0" x2="1" y2="1"><stop offset="0" stop-color="#ff5a1f" stop-opacity="1"/><stop offset="1" stop-color="#ffb347" stop-opacity="1"/></linearGradient><linearGradient id="g5" x1="0" y1="0" x2="1" y2="1"><stop offset="0" stop-color="#2d6bff" stop-opacity="1"/><stop offset="1" stop-color="#7be0ff" stop-opacity="1"/></linearGradient><linearGradient id="g6" x1="0" y1="0" x2="1" y2="0"><stop offset="0" stop-color="#f7f5f1" stop-opacity="1"/><stop offset="0.55" stop-color="#f5f3ee" stop-opacity="1"/><stop offset="1" stop-color="#93928f" stop-opacity="1"/></linearGradient><linearGradient id="g7" x1="0" y1="0" x2="1" y2="0"><stop offset="0" stop-color="#f7f5f1" stop-opacity="1"/><stop offset="0.55" stop-color="#f5f3ee" stop-opacity="1"/><stop offset="1" stop-color="#93928f" stop-opacity="1"/></linearGradient><linearGradient id="g8" x1="0" y1="0" x2="1" y2="0"><stop offset="0" stop-color="#a0a6b2" stop-opacity="1"/><stop offset="0.55" stop-color="#8b93a1" stop-opacity="1"/><stop offset="1" stop-color="#535861" stop-opacity="1"/></linearGradient><linearGradient id="g9" x1="0" y1="0" x2="1" y2="0"><stop offset="0" stop-color="#d3d6dd" stop-opacity="1"/><stop offset="0.55" stop-color="#c9cdd6" stop-opacity="1"/><stop offset="1" stop-color="#797b80" stop-opacity="1"/></linearGradient><linearGradient id="g10" x1="0" y1="0" x2="1" y2="0"><stop offset="0" stop-color="#868b97" stop-opacity="1"/><stop offset="0.55" stop-color="#6b7280" stop-opacity="1"/><stop offset="1" stop-color="#40444d" stop-opacity="1"/></linearGradient><linearGradient id="g11" x1="0" y1="0" x2="1" y2="0"><stop offset="0" stop-color="#b4b8c1" stop-opacity="1"/><stop offset="0.55" stop-color="#a3a9b3" stop-opacity="1"/><stop offset="1" stop-color="#62656b" stop-opacity="1"/></linearGradient><linearGradient id="g12" x1="0" y1="0" x2="0" y2="1"><stop offset="0" stop-color="#ffb98f" stop-opacity="0.22"/><stop offset="1" stop-color="#ffb98f" stop-opacity="0"/></linearGradient><radialGradient id="r13"><stop offset="0" stop-color="#ffb98f" stop-opacity="0.24200000000000002"/><stop offset="1" stop-color="#ffb98f" stop-opacity="0"/></radialGradient><linearGradient id="g14" x1="0" y1="0" x2="0" y2="1"><stop offset="0" stop-color="#7be0ff" stop-opacity="0.2"/><stop offset="1" stop-color="#7be0ff" stop-opacity="0"/></linearGradient><radialGradient id="r15"><stop offset="0" stop-color="#7be0ff" stop-opacity="0.22000000000000003"/><stop offset="1" stop-color="#7be0ff" stop-opacity="0"/></radialGradient></defs><rect width="1600" height="900" fill="url(#g1)"/><ellipse cx="128" cy="-36" rx="256" ry="252" fill="url(#r2)"/><ellipse cx="464" cy="-36" rx="256" ry="252" fill="url(#r2)"/><ellipse cx="800" cy="-36" rx="256" ry="252" fill="url(#r2)"/><ellipse cx="1136" cy="-36" rx="256" ry="252" fill="url(#r2)"/><ellipse cx="1472" cy="-36" rx="256" ry="252" fill="url(#r2)"/><g stroke="#ffffff" stroke-opacity="0.05" stroke-width="1"><line x1="737.6" y1="86.4" x2="-235.1" y2="648.0"/><line x1="787.5" y1="115.2" x2="-185.2" y2="676.8"/><line x1="837.4" y1="144.0" x2="-135.3" y2="705.6"/><line x1="887.3" y1="172.8" x2="-85.4" y2="734.4"/><line x1="937.2" y1="201.6" x2="-35.5" y2="763.2"/><line x1="987.1" y1="230.4" x2="14.3" y2="792.0"/><line x1="1036.9" y1="259.2" x2="64.2" y2="820.8"/><line x1="1086.8" y1="288.0" x2="114.1" y2="849.6"/><line x1="1136.7" y1="316.8" x2="164.0" y2="878.4"/><line x1="1186.6" y1="345.6" x2="213.9" y2="907.2"/><line x1="1236.5" y1="374.4" x2="263.8" y2="936.0"/><line x1="1286.4" y1="403.2" x2="313.6" y2="964.8"/><line x1="1336.2" y1="432.0" x2="363.5" y2="993.6"/><line x1="1386.1" y1="460.8" x2="413.4" y2="1022.4"/><line x1="1436.0" y1="489.6" x2="463.3" y2="1051.2"/><line x1="1485.9" y1="518.4" x2="513.2" y2="1080.0"/><line x1="1535.8" y1="547.2" x2="563.1" y2="1108.8"/><line x1="1585.7" y1="576.0" x2="612.9" y2="1137.6"/><line x1="1635.5" y1="604.8" x2="662.8" y2="1166.4"/><line x1="1685.4" y1="633.6" x2="712.7" y2="1195.2"/><line x1="1735.3" y1="662.4" x2="762.6" y2="1224.0"/><line x1="1785.2" y1="691.2" x2="812.5" y2="1252.8"/><line x1="1835.1" y1="720.0" x2="862.4" y2="1281.6"/><line x1="737.6" y1="86.4" x2="1835.1" y2="720.0"/><line x1="687.8" y1="115.2" x2="1785.2" y2="748.8"/><line x1="637.9" y1="144.0" x2="1735.3" y2="777.6"/><line x1="588.0" y1="172.8" x2="1685.4" y2="806.4"/><line x1="538.1" y1="201.6" x2="1635.5" y2="835.2"/><line x1="488.2" y1="230.4" x2="1585.7" y2="864.0"/><line x1="438.3" y1="259.2" x2="1535.8" y2="892.8"/><line x1="388.5" y1="288.0" x2="1485.9" y2="921.6"/><line x1="338.6" y1="316.8" x2="1436.0" y2="950.4"/><line x1="288.7" y1="345.6" x2="1386.1" y2="979.2"/><line x1="238.8" y1="374.4" x2="1336.2" y2="1008.0"/><line x1="188.9" y1="403.2" x2="1286.4" y2="1036.8"/><line x1="139.0" y1="432.0" x2="1236.5" y2="1065.6"/><line x1="89.2" y1="460.8" x2="1186.6" y2="1094.4"/><line x1="39.3" y1="489.6" x2="1136.7" y2="1123.2"/><line x1="-10.6" y1="518.4" x2="1086.8" y2="1152.0"/><line x1="-60.5" y1="547.2" x2="1036.9" y2="1180.8"/><line x1="-110.4" y1="576.0" x2="987.1" y2="1209.6"/><line x1="-160.2" y1="604.8" x2="937.2" y2="1238.4"/><line x1="-210.1" y1="633.6" x2="887.3" y2="1267.2"/></g><rect width="1600" height="900" fill="url(#r3)"/><polygon points="238.8,653.8 862.4,1013.8 862.4,1008.0 238.8,648.0" fill="#1d2129" stroke="#1d2129" stroke-width="0.6" stroke-linejoin="round"/><polygon points="1361.2,725.8 862.4,1013.8 862.4,1008.0 1361.2,720.0" fill="#14161c" stroke="#14161c" stroke-width="0.6" stroke-linejoin="round"/><polygon points="737.6,360.0 1361.2,720.0 862.4,1008.0 238.8,648.0" fill="#232833" stroke="#232833" stroke-width="0.6" stroke-linejoin="round"/><polygon points="363.5,648.0 862.4,936.0 862.4,928.8 363.5,640.8" fill="#2c313b" stroke="#2c313b" stroke-width="0.6" stroke-linejoin="round"/><polygon points="1236.5,720.0 862.4,936.0 862.4,928.8 1236.5,712.8" fill="#1e2128" stroke="#1e2128" stroke-width="0.6" stroke-linejoin="round"/><polygon points="737.6,424.8 1236.5,712.8 862.4,928.8 363.5,640.8" fill="#303643" stroke="#303643" stroke-width="0.6" stroke-linejoin="round"/><polyline points="363.5,640.8 862.4,928.8 1236.5,712.8" fill="none" stroke="#fff" stroke-opacity=".16" stroke-width=".8"/><polygon points="400.9,640.8 862.4,907.2 862.4,905.8 400.9,639.4" fill="#0e1115" stroke="#0e1115" stroke-width="0.6" stroke-linejoin="round"/><polygon points="1199.1,712.8 862.4,907.2 862.4,905.8 1199.1,711.4" fill="#0a0c0e" stroke="#0a0c0e" stroke-width="0.6" stroke-linejoin="round"/><polygon points="737.6,445.0 1199.1,711.4 862.4,905.8 400.9,639.4" fill="#1c1f23" stroke="#1c1f23" stroke-width="0.6" stroke-linejoin="round"/><polygon points="457.1,607.0 467.0,612.7 467.0,468.7 457.1,463.0" fill="#1c2027" stroke="#1c2027" stroke-width="0.6" stroke-linejoin="round"/><polygon points="704.0,475.9 467.0,612.7 467.0,468.7 704.0,331.9" fill="#13161b" stroke="#13161b" stroke-width="0.6" stroke-linejoin="round"/><polygon points="694.0,326.2 704.0,331.9 467.0,468.7 457.1,463.0" fill="#494d52" stroke="#494d52" stroke-width="0.6" stroke-linejoin="round"/><polyline points="457.1,463.0 467.0,468.7 704.0,331.9" fill="none" stroke="#fff" stroke-opacity=".16" stroke-width=".8"/><g opacity="0.85"><polygon points="674.8,457.9 569.3,518.8 569.3,510.8 674.8,449.9" fill="#fff" stroke="#fff" stroke-width="0.6" stroke-linejoin="round"/></g><g opacity="0.85"><polygon points="674.8,434.1 574.1,492.2 574.1,484.2 674.8,426.0" fill="#fff" stroke="#fff" stroke-width="0.6" stroke-linejoin="round"/></g><g opacity="0.85"><polygon points="674.8,410.3 552.7,480.8 552.7,472.7 674.8,402.2" fill="#fff" stroke="#fff" stroke-width="0.6" stroke-linejoin="round"/></g><polygon points="691.6,468.8 479.6,591.2 479.6,476.0 691.6,353.6" fill="url(#g5)" stroke="none" stroke-width="0.6" stroke-linejoin="round"/><polygon points="758.8,468.7 1157.9,699.1 1157.9,555.1 758.8,324.7" fill="#1c2027" stroke="#1c2027" stroke-width="0.6" stroke-linejoin="round"/><polygon points="1167.9,693.4 1157.9,699.1 1157.9,555.1 1167.9,549.4" fill="#13161b" stroke="#13161b" stroke-width="0.6" stroke-linejoin="round"/><polygon points="768.8,319.0 1167.9,549.4 1157.9,555.1 758.8,324.7" fill="#494d52" stroke="#494d52" stroke-width="0.6" stroke-linejoin="round"/><polyline points="758.8,324.7 1157.9,555.1 1167.9,549.4" fill="none" stroke="#fff" stroke-opacity=".16" stroke-width=".8"/><g opacity="0.85"><polygon points="801.0,458.2 919.7,526.7 919.7,518.7 801.0,450.1" fill="#fff" stroke="#fff" stroke-width="0.6" stroke-linejoin="round"/></g><g opacity="0.85"><polygon points="801.0,440.4 1053.1,585.9 1053.1,577.8 801.0,432.3" fill="#fff" stroke="#fff" stroke-width="0.6" stroke-linejoin="round"/></g><g opacity="0.85"><polygon points="801.0,422.5 1037.4,559.0 1037.4,550.9 801.0,414.4" fill="#fff" stroke="#fff" stroke-width="0.6" stroke-linejoin="round"/></g><g opacity="0.85"><polygon points="801.0,404.6 942.2,486.2 942.2,478.1 801.0,396.6" fill="#fff" stroke="#fff" stroke-width="0.6" stroke-linejoin="round"/></g><polygon points="771.2,461.6 1145.3,677.6 1145.3,562.4 771.2,346.4" fill="url(#g4)" stroke="none" stroke-width="0.6" stroke-linejoin="round"/><path d="M659.7 527.0 L659.7 574.6 A40.6 23.4 0 0 0 740.8 574.6 L740.8 527.0 Z" fill="url(#g7)"/><ellipse cx="700.2" cy="527.0" rx="40.6" ry="23.4" fill="#7be0ff"/><line x1="690.3" y1="416.2" x2="690.3" y2="289.4" stroke="#8b93a1" stroke-width="1" stroke-opacity=".7"/><line x1="909.7" y1="416.2" x2="909.7" y2="289.4" stroke="#8b93a1" stroke-width="1" stroke-opacity=".7"/><path d="M698.6 573.1 L698.6 633.6 A14.1 8.1 0 0 0 726.8 633.6 L726.8 573.1 Z" fill="url(#g11)"/><ellipse cx="712.7" cy="573.1" rx="14.1" ry="8.1" fill="#acb2bb"/><circle cx="712.7" cy="565.2" r="8.9" fill="#c3c7ce"/><polygon points="523.1,619.2 647.9,691.2 647.9,642.2 523.1,570.2" fill="#f5f3ee" stroke="#f5f3ee" stroke-width="0.6" stroke-linejoin="round"/><polygon points="675.3,675.4 647.9,691.2 647.9,642.2 675.3,626.4" fill="#a7a5a2" stroke="#a7a5a2" stroke-width="0.6" stroke-linejoin="round"/><polygon points="550.6,554.4 675.3,626.4 647.9,642.2 523.1,570.2" fill="#ff5a1f" stroke="#ff5a1f" stroke-width="0.6" stroke-linejoin="round"/><polyline points="523.1,570.2 647.9,642.2 675.3,626.4" fill="none" stroke="#fff" stroke-opacity=".16" stroke-width=".8"/><polygon points="725.2,675.4 800.0,718.6 800.0,626.4 725.2,583.2" fill="#ebe8e1" stroke="#ebe8e1" stroke-width="0.6" stroke-linejoin="round"/><polygon points="874.8,675.4 800.0,718.6 800.0,626.4 874.8,583.2" fill="#a09e99" stroke="#a09e99" stroke-width="0.6" stroke-linejoin="round"/><polygon points="800.0,540.0 874.8,583.2 800.0,626.4 725.2,583.2" fill="#efede7" stroke="#efede7" stroke-width="0.6" stroke-linejoin="round"/><polyline points="725.2,583.2 800.0,626.4 874.8,583.2" fill="none" stroke="#fff" stroke-opacity=".16" stroke-width=".8"/><polygon points="717.7,583.2 800.0,630.7 800.0,613.4 717.7,565.9" fill="#ff5a1f" stroke="#ff5a1f" stroke-width="0.6" stroke-linejoin="round"/><polygon points="882.3,583.2 800.0,630.7 800.0,613.4 882.3,565.9" fill="#ad3d15" stroke="#ad3d15" stroke-width="0.6" stroke-linejoin="round"/><polygon points="800.0,518.4 882.3,565.9 800.0,613.4 717.7,565.9" fill="#ff7b4c" stroke="#ff7b4c" stroke-width="0.6" stroke-linejoin="round"/><polyline points="717.7,565.9 800.0,613.4 882.3,565.9" fill="none" stroke="#fff" stroke-opacity=".16" stroke-width=".8"/><polygon points="725.2,565.9 800.0,609.1 800.0,557.3 725.2,514.1" fill="#ebe8e1" stroke="#ebe8e1" stroke-width="0.6" stroke-linejoin="round"/><polygon points="874.8,565.9 800.0,609.1 800.0,557.3 874.8,514.1" fill="#a09e99" stroke="#a09e99" stroke-width="0.6" stroke-linejoin="round"/><polygon points="800.0,470.9 874.8,514.1 800.0,557.3 725.2,514.1" fill="#efede7" stroke="#efede7" stroke-width="0.6" stroke-linejoin="round"/><polyline points="725.2,514.1 800.0,557.3 874.8,514.1" fill="none" stroke="#fff" stroke-opacity=".16" stroke-width=".8"/><text transform="matrix(0.8660 0.5000 0 1 730.0 551.6)" font-family="Arial,Helvetica,sans-serif" font-size="24.5" font-weight="900" fill="#0e1013" text-anchor="start" letter-spacing="0.0">NOVA</text><path d="M548.9 645.1 L548.9 705.6 A14.1 8.1 0 0 0 577.2 705.6 L577.2 645.1 Z" fill="url(#g8)"/><ellipse cx="563.1" cy="645.1" rx="14.1" ry="8.1" fill="#979eaa"/><circle cx="563.1" cy="637.2" r="8.9" fill="#b4b9c2"/><text transform="matrix(0.8660 -0.5000 0 1 800.1 591.9)" font-family="Arial,Helvetica,sans-serif" font-size="24.5" font-weight="900" fill="#ff5a1f" text-anchor="start" letter-spacing="0.0">TECH</text><path d="M934.0 685.4 L934.0 733.0 A40.6 23.4 0 0 0 1015.2 733.0 L1015.2 685.4 Z" fill="url(#g6)"/><ellipse cx="974.6" cy="685.4" rx="40.6" ry="23.4" fill="#ff5a1f"/><line x1="909.7" y1="542.9" x2="909.7" y2="416.2" stroke="#8b93a1" stroke-width="1" stroke-opacity=".7"/><line x1="690.3" y1="542.9" x2="690.3" y2="416.2" stroke="#8b93a1" stroke-width="1" stroke-opacity=".7"/><path d="M748.5 702.7 L748.5 763.2 A14.1 8.1 0 0 0 776.7 763.2 L776.7 702.7 Z" fill="url(#g9)"/><ellipse cx="762.6" cy="702.7" rx="14.1" ry="8.1" fill="#ced2da"/><circle cx="762.6" cy="694.8" r="8.9" fill="#dcdee4"/><path d="M898.1 745.9 L898.1 806.4 A14.1 8.1 0 0 0 926.3 806.4 L926.3 745.9 Z" fill="url(#g10)"/><ellipse cx="912.2" cy="745.9" rx="14.1" ry="8.1" fill="#7a808d"/><circle cx="912.2" cy="738.0" r="8.9" fill="#9fa3ac"/><polygon points="735.2,813.6 847.4,878.4 847.4,829.4 735.2,764.6" fill="#f5f3ee" stroke="#f5f3ee" stroke-width="0.6" stroke-linejoin="round"/><polygon points="874.8,862.6 847.4,878.4 847.4,829.4 874.8,813.6" fill="#a7a5a2" stroke="#a7a5a2" stroke-width="0.6" stroke-linejoin="round"/><polygon points="762.6,748.8 874.8,813.6 847.4,829.4 735.2,764.6" fill="#ff5a1f" stroke="#ff5a1f" stroke-width="0.6" stroke-linejoin="round"/><polyline points="735.2,764.6 847.4,829.4 874.8,813.6" fill="none" stroke="#fff" stroke-opacity=".16" stroke-width=".8"/><ellipse cx="800.0" cy="479.5" rx="220.4" ry="127.3" fill="none" stroke="#f4f4f4" stroke-width="8.6"/><ellipse cx="800.0" cy="482.5" rx="220.4" ry="127.3" fill="none" stroke="#ff5a1f" stroke-width="2.2" stroke-opacity=".9"/><path d="M798.0 482.4 L641.3 682.6 A158.7 91.6 0 0 0 958.7 682.6 Z" fill="url(#g12)"/><ellipse cx="800.0" cy="682.6" rx="158.7" ry="91.6" fill="url(#r13)"/><path d="M698.2 410.4 L629.7 581.8 A70.5 40.7 0 0 0 770.8 581.8 Z" fill="url(#g14)"/><ellipse cx="700.2" cy="581.8" rx="70.5" ry="40.7" fill="url(#r15)"/></svg>