<svg xmlns="http://www.w3.org/2000/svg" viewBox="0 0 1200 630" width="1200" height="630" role="img" aria-label="Standform exhibition stand studio"><defs><linearGradient id="g1" x1="0" y1="0" x2="1" y2="1"><stop offset="0" stop-color="#12161d" stop-opacity="1"/><stop offset="1" stop-color="#242b39" stop-opacity="1"/></linearGradient><linearGradient id="g2" x1="0" y1="0" x2="1" y2="1"><stop offset="0" stop-color="#2d6bff" stop-opacity="1"/><stop offset="1" stop-color="#7be0ff" stop-opacity="1"/></linearGradient><linearGradient id="g3" x1="0" y1="0" x2="1" y2="0"><stop offset="0" stop-color="#f7f5f1" stop-opacity="1"/><stop offset="0.55" stop-color="#f5f3ee" stop-opacity="1"/><stop offset="1" stop-color="#93928f" stop-opacity="1"/></linearGradient><linearGradient id="g4" x1="0" y1="0" x2="1" y2="0"><stop offset="0" stop-color="#f7f5f1" stop-opacity="1"/><stop offset="0.55" stop-color="#f5f3ee" stop-opacity="1"/><stop offset="1" stop-color="#93928f" stop-opacity="1"/></linearGradient><linearGradient id="g5" x1="0" y1="0" x2="1" y2="0"><stop offset="0" stop-color="#50545c" stop-opacity="1"/><stop offset="0.55" stop-color="#2a2f38" stop-opacity="1"/><stop offset="1" stop-color="#191c22" stop-opacity="1"/></linearGradient><linearGradient id="g6" x1="0" y1="0" x2="1" y2="0"><stop offset="0" stop-color="#50545c" stop-opacity="1"/><stop offset="0.55" stop-color="#2a2f38" stop-opacity="1"/><stop offset="1" stop-color="#191c22" stop-opacity="1"/></linearGradient><linearGradient id="g7" x1="0" y1="0" x2="1" y2="0"><stop offset="0" stop-color="#acb2bc" stop-opacity="1"/><stop offset="0.55" stop-color="#9aa1ad" stop-opacity="1"/><stop offset="1" stop-color="#5c6168" stop-opacity="1"/></linearGradient><linearGradient id="g8" x1="0" y1="0" x2="1" y2="0"><stop offset="0" stop-color="#d8dce2" stop-opacity="1"/><stop offset="0.55" stop-color="#d0d4dc" stop-opacity="1"/><stop offset="1" stop-color="#7d7f84" stop-opacity="1"/></linearGradient><linearGradient id="g9" x1="0" y1="0" x2="1" y2="0"><stop offset="0" stop-color="#9297a1" stop-opacity="1"/><stop offset="0.55" stop-color="#7a808c" stop-opacity="1"/><stop offset="1" stop-color="#494d54" stop-opacity="1"/></linearGradient><linearGradient id="g10" x1="0" y1="0" x2="1" y2="0"><stop offset="0" stop-color="#ced2d9" stop-opacity="1"/><stop offset="0.55" stop-color="#c3c8d1" stop-opacity="1"/><stop offset="1" stop-color="#75787d" stop-opacity="1"/></linearGradient><linearGradient id="g11" x1="0" y1="0" x2="1" y2="0"><stop offset="0" stop-color="#a0a6b2" stop-opacity="1"/><stop offset="0.55" stop-color="#8b93a1" stop-opacity="1"/><stop offset="1" stop-color="#535861" stop-opacity="1"/></linearGradient><linearGradient id="g12" x1="0" y1="0" x2="0" y2="1"><stop offset="0" stop-color="#ffb98f" stop-opacity="0.22"/><stop offset="1" stop-color="#ffb98f" stop-opacity="0"/></linearGradient><radialGradient id="r13"><stop offset="0" stop-color="#ffb98f" stop-opacity="0.24200000000000002"/><stop offset="1" stop-color="#ffb98f" stop-opacity="0"/></radialGradient></defs><rect width="1200" height="630" fill="#0e1013"/><g opacity="0.05"><polygon points="569.8,302.0 859.9,469.5 630.2,602.0 340.1,434.6" fill="#ffffff" stroke="#ffffff" stroke-width="0.6" stroke-linejoin="round"/></g><polygon points="388.5,433.2 630.2,572.7 630.2,568.6 388.5,429.0" fill="#2b303a" stroke="#2b303a" stroke-width="0.6" stroke-linejoin="round"/><polygon points="811.5,468.1 630.2,572.7 630.2,568.6 811.5,463.9" fill="#1d2127" stroke="#1d2127" stroke-width="0.6" stroke-linejoin="round"/><polygon points="569.8,324.3 811.5,463.9 630.2,568.6 388.5,429.0" fill="#343a46" stroke="#343a46" stroke-width="0.6" stroke-linejoin="round"/><polyline points="388.5,429.0 630.2,568.6 811.5,463.9" fill="none" stroke="#fff" stroke-opacity=".16" stroke-width=".8"/><polygon points="406.6,429.0 630.2,558.1 630.2,557.4 406.6,428.3" fill="#10131a" stroke="#10131a" stroke-width="0.6" stroke-linejoin="round"/><polygon points="793.4,463.9 630.2,558.1 630.2,557.4 793.4,463.2" fill="#0b0d12" stroke="#0b0d12" stroke-width="0.6" stroke-linejoin="round"/><polygon points="569.8,334.1 793.4,463.2 630.2,557.4 406.6,428.3" fill="#141821" stroke="#141821" stroke-width="0.6" stroke-linejoin="round"/><polygon points="479.1,386.4 484.0,389.2 484.0,312.4 479.1,309.6" fill="#e6e3dc" stroke="#e6e3dc" stroke-width="0.6" stroke-linejoin="round"/><polygon points="574.6,336.9 484.0,389.2 484.0,312.4 574.6,260.1" fill="#9c9a96" stroke="#9c9a96" stroke-width="0.6" stroke-linejoin="round"/><polygon points="569.8,257.3 574.6,260.1 484.0,312.4 479.1,309.6" fill="#ebe9e3" stroke="#ebe9e3" stroke-width="0.6" stroke-linejoin="round"/><polyline points="479.1,309.6 484.0,312.4 574.6,260.1" fill="none" stroke="#fff" stroke-opacity=".16" stroke-width=".8"/><polygon points="564.9,336.9 710.0,420.6 710.0,343.8 564.9,260.1" fill="#f2f0ea" stroke="#f2f0ea" stroke-width="0.6" stroke-linejoin="round"/><polygon points="714.8,417.8 710.0,420.6 710.0,343.8 714.8,341.1" fill="#a5a39f" stroke="#a5a39f" stroke-width="0.6" stroke-linejoin="round"/><polygon points="569.8,257.3 714.8,341.1 710.0,343.8 564.9,260.1" fill="#ffffff" stroke="#ffffff" stroke-width="0.6" stroke-linejoin="round"/><polyline points="564.9,260.1 710.0,343.8 714.8,341.1" fill="none" stroke="#fff" stroke-opacity=".16" stroke-width=".8"/><g opacity="0.85"><polygon points="555.3,334.4 528.2,350.0 528.2,347.4 555.3,331.8" fill="#fff" stroke="#fff" stroke-width="0.6" stroke-linejoin="round"/></g><g opacity="0.85"><polygon points="555.3,322.7 529.5,337.6 529.5,335.0 555.3,320.1" fill="#fff" stroke="#fff" stroke-width="0.6" stroke-linejoin="round"/></g><polygon points="559.6,338.6 505.2,370.0 505.2,332.4 559.6,301.0" fill="url(#g2)" stroke="none" stroke-width="0.6" stroke-linejoin="round"/><g opacity="0.85"><polygon points="594.2,340.1 626.8,358.9 626.8,356.3 594.2,337.5" fill="#fff" stroke="#fff" stroke-width="0.6" stroke-linejoin="round"/></g><g opacity="0.85"><polygon points="594.2,334.3 663.4,374.3 663.4,371.6 594.2,331.7" fill="#fff" stroke="#fff" stroke-width="0.6" stroke-linejoin="round"/></g><g opacity="0.85"><polygon points="594.2,328.4 659.1,365.9 659.1,363.3 594.2,325.8" fill="#fff" stroke="#fff" stroke-width="0.6" stroke-linejoin="round"/></g><g opacity="0.85"><polygon points="594.2,322.6 633.0,345.0 633.0,342.4 594.2,320.0" fill="#fff" stroke="#fff" stroke-width="0.6" stroke-linejoin="round"/></g><polygon points="586.0,342.1 688.8,401.5 688.8,363.8 586.0,304.5" fill="url(#g1)" stroke="none" stroke-width="0.6" stroke-linejoin="round"/><polygon points="564.3,283.5 709.4,367.2 709.4,344.2 564.3,260.5" fill="#ff5a1f" stroke="#ff5a1f" stroke-width="0.6" stroke-linejoin="round"/><polygon points="714.8,364.1 709.4,367.2 709.4,344.2 714.8,341.1" fill="#ad3d15" stroke="#ad3d15" stroke-width="0.6" stroke-linejoin="round"/><polygon points="569.8,257.3 714.8,341.1 709.4,344.2 564.3,260.5" fill="#ff8a5c" stroke="#ff8a5c" stroke-width="0.6" stroke-linejoin="round"/><polyline points="564.3,260.5 709.4,344.2 714.8,341.1" fill="none" stroke="#fff" stroke-opacity=".16" stroke-width=".8"/><text transform="matrix(0.8660 0.5000 0 1 573.3 284.6)" font-family="Arial,Helvetica,sans-serif" font-size="14.0" font-weight="900" fill="#0e1013" text-anchor="start" letter-spacing="1.0">YOUR BRAND</text><path d="M550.9 389.2 L550.9 418.5 A6.8 3.9 0 0 0 564.5 418.5 L564.5 389.2 Z" fill="url(#g10)"/><ellipse cx="557.7" cy="389.2" rx="6.8" ry="3.9" fill="#c9ced6"/><circle cx="557.7" cy="385.4" r="4.3" fill="#d8dbe1"/><path d="M429.1 414.3 L429.1 425.5 A7.7 4.4 0 0 0 444.5 425.5 L444.5 414.3 Z" fill="url(#g6)"/><ellipse cx="436.8" cy="414.3" rx="7.7" ry="4.4" fill="#595d64"/><circle cx="436.8" cy="403.9" r="8.7" fill="#3b8554"/><circle cx="432.0" cy="407.7" r="6.6" fill="#3f8f5a"/><circle cx="439.5" cy="410.3" r="6.6" fill="#3e8e59"/><polygon points="476.7,419.2 543.2,457.6 543.2,433.9 476.7,395.5" fill="#f5f3ee" stroke="#f5f3ee" stroke-width="0.6" stroke-linejoin="round"/><polygon points="557.7,449.2 543.2,457.6 543.2,433.9 557.7,425.5" fill="#a7a5a2" stroke="#a7a5a2" stroke-width="0.6" stroke-linejoin="round"/><polygon points="491.2,387.1 557.7,425.5 543.2,433.9 476.7,395.5" fill="#ff5a1f" stroke="#ff5a1f" stroke-width="0.6" stroke-linejoin="round"/><polyline points="476.7,395.5 543.2,433.9 557.7,425.5" fill="none" stroke="#fff" stroke-opacity=".16" stroke-width=".8"/><polygon points="496.1,394.8 520.2,408.7 520.2,392.0 496.1,378.0" fill="#0e1013" stroke="#0e1013" stroke-width="0.6" stroke-linejoin="round"/><polygon points="521.4,408.0 520.2,408.7 520.2,392.0 521.4,391.3" fill="#0a0b0d" stroke="#0a0b0d" stroke-width="0.6" stroke-linejoin="round"/><polygon points="497.3,377.3 521.4,391.3 520.2,392.0 496.1,378.0" fill="#3e4042" stroke="#3e4042" stroke-width="0.6" stroke-linejoin="round"/><polyline points="496.1,378.0 520.2,392.0 521.4,391.3" fill="none" stroke="#fff" stroke-opacity=".16" stroke-width=".8"/><polygon points="642.3,449.2 656.8,457.6 656.8,433.9 642.3,425.5" fill="#f5f3ee" stroke="#f5f3ee" stroke-width="0.6" stroke-linejoin="round"/><polygon points="711.2,426.2 656.8,457.6 656.8,433.9 711.2,402.5" fill="#a7a5a2" stroke="#a7a5a2" stroke-width="0.6" stroke-linejoin="round"/><polygon points="696.7,394.1 711.2,402.5 656.8,433.9 642.3,425.5" fill="#ffffff" stroke="#ffffff" stroke-width="0.6" stroke-linejoin="round"/><polyline points="642.3,425.5 656.8,433.9 711.2,402.5" fill="none" stroke="#fff" stroke-opacity=".16" stroke-width=".8"/><path d="M496.5 434.6 L496.5 463.9 A6.8 3.9 0 0 0 510.1 463.9 L510.1 434.6 Z" fill="url(#g7)"/><ellipse cx="503.3" cy="434.6" rx="6.8" ry="3.9" fill="#a4aab5"/><circle cx="503.3" cy="430.7" r="4.3" fill="#bdc2ca"/><path d="M705.5 448.5 L705.5 466.7 A15.4 8.9 0 0 0 736.3 466.7 L736.3 448.5 Z" fill="url(#g4)"/><ellipse cx="720.9" cy="448.5" rx="15.4" ry="8.9" fill="#7be0ff"/><path d="M544.9 443.6 L544.9 466.7 A18.8 10.9 0 0 0 582.5 466.7 L582.5 443.6 Z" fill="url(#g3)"/><ellipse cx="563.7" cy="443.6" rx="18.8" ry="10.9" fill="#ff5a1f"/><path d="M689.9 462.5 L689.9 491.8 A6.8 3.9 0 0 0 703.5 491.8 L703.5 462.5 Z" fill="url(#g11)"/><ellipse cx="696.7" cy="462.5" rx="6.8" ry="3.9" fill="#979eaa"/><polygon points="612.1,487.6 642.3,505.0 642.3,470.2 612.1,452.7" fill="#1b1f27" stroke="#1b1f27" stroke-width="0.6" stroke-linejoin="round"/><polygon points="672.5,487.6 642.3,505.0 642.3,470.2 672.5,452.7" fill="#12151b" stroke="#12151b" stroke-width="0.6" stroke-linejoin="round"/><polygon points="642.3,435.3 672.5,452.7 642.3,470.2 612.1,452.7" fill="#494c52" stroke="#494c52" stroke-width="0.6" stroke-linejoin="round"/><polyline points="612.1,452.7 642.3,470.2 672.5,452.7" fill="none" stroke="#fff" stroke-opacity=".16" stroke-width=".8"/><polygon points="608.5,452.7 642.3,472.2 642.3,464.6 608.5,445.0" fill="#ff5a1f" stroke="#ff5a1f" stroke-width="0.6" stroke-linejoin="round"/><polygon points="676.1,452.7 642.3,472.2 642.3,464.6 676.1,445.0" fill="#ad3d15" stroke="#ad3d15" stroke-width="0.6" stroke-linejoin="round"/><polygon points="642.3,425.5 676.1,445.0 642.3,464.6 608.5,445.0" fill="#ff7b4c" stroke="#ff7b4c" stroke-width="0.6" stroke-linejoin="round"/><polyline points="608.5,445.0 642.3,464.6 676.1,445.0" fill="none" stroke="#fff" stroke-opacity=".16" stroke-width=".8"/><polygon points="533.5,323.6 630.2,379.4 630.2,366.9 533.5,311.0" fill="#ffffff" stroke="#ffffff" stroke-width="0.6" stroke-linejoin="round"/><polygon points="678.6,351.5 630.2,379.4 630.2,366.9 678.6,339.0" fill="#adadad" stroke="#adadad" stroke-width="0.6" stroke-linejoin="round"/><polygon points="581.9,283.1 678.6,339.0 630.2,366.9 533.5,311.0" fill="#ffffff" stroke="#ffffff" stroke-width="0.6" stroke-linejoin="round"/><polyline points="533.5,311.0 630.2,366.9 678.6,339.0" fill="none" stroke="#fff" stroke-opacity=".16" stroke-width=".8"/><polygon points="533.5,323.6 630.2,379.4 630.2,377.3 533.5,321.5" fill="#ff5a1f" stroke="#ff5a1f" stroke-width="0.6" stroke-linejoin="round"/><polygon points="678.6,351.5 630.2,379.4 630.2,377.3 678.6,349.4" fill="#ad3d15" stroke="#ad3d15" stroke-width="0.6" stroke-linejoin="round"/><polygon points="581.9,293.6 678.6,349.4 630.2,377.3 533.5,321.5" fill="#ff7b4c" stroke="#ff7b4c" stroke-width="0.6" stroke-linejoin="round"/><line x1="581.9" y1="290.1" x2="581.9" y2="230.1" stroke="#8b93a1" stroke-width="1" stroke-opacity=".7"/><line x1="549.2" y1="309.0" x2="549.2" y2="248.9" stroke="#8b93a1" stroke-width="1" stroke-opacity=".7"/><text transform="matrix(0.8660 0.5000 0 1 539.5 322.9)" font-family="Arial,Helvetica,sans-serif" font-size="9.1" font-weight="900" fill="#0e1013" text-anchor="start" letter-spacing="0.7">YOUR BRAND</text><line x1="660.4" y1="335.5" x2="660.4" y2="275.5" stroke="#8b93a1" stroke-width="1" stroke-opacity=".7"/><line x1="627.8" y1="354.3" x2="627.8" y2="294.3" stroke="#8b93a1" stroke-width="1" stroke-opacity=".7"/><circle cx="696.7" cy="458.6" r="4.3" fill="#b4b9c2"/><polygon points="612.1,445.0 642.3,462.5 642.3,430.4 612.1,412.9" fill="#1b1f27" stroke="#1b1f27" stroke-width="0.6" stroke-linejoin="round"/><polygon points="672.5,445.0 642.3,462.5 642.3,430.4 672.5,412.9" fill="#12151b" stroke="#12151b" stroke-width="0.6" stroke-linejoin="round"/><polygon points="642.3,395.5 672.5,412.9 642.3,430.4 612.1,412.9" fill="#494c52" stroke="#494c52" stroke-width="0.6" stroke-linejoin="round"/><polyline points="612.1,412.9 642.3,430.4 672.5,412.9" fill="none" stroke="#fff" stroke-opacity=".16" stroke-width=".8"/><text transform="matrix(0.8660 -0.5000 0 1 630.3 375.3)" font-family="Arial,Helvetica,sans-serif" font-size="9.1" font-weight="900" fill="#ff5a1f" text-anchor="start" letter-spacing="0.0">HERE</text><path d="M544.8 469.5 L544.8 498.8 A6.8 3.9 0 0 0 558.5 498.8 L558.5 469.5 Z" fill="url(#g8)"/><ellipse cx="551.7" cy="469.5" rx="6.8" ry="3.9" fill="#d5d8e0"/><circle cx="551.7" cy="465.6" r="4.3" fill="#e0e3e8"/><text transform="matrix(0.8660 0.5000 0 1 613.8 437.0)" font-family="Arial,Helvetica,sans-serif" font-size="9.1" font-weight="900" fill="#fff" text-anchor="start" letter-spacing="0.0">STAND</text><text transform="matrix(0.8660 -0.5000 0 1 642.4 453.4)" font-family="Arial,Helvetica,sans-serif" font-size="8.4" font-weight="900" fill="#ff5a1f" text-anchor="start" letter-spacing="0.0">4B-212</text><path d="M599.2 493.9 L599.2 523.2 A6.8 3.9 0 0 0 612.9 523.2 L612.9 493.9 Z" fill="url(#g9)"/><ellipse cx="606.0" cy="493.9" rx="6.8" ry="3.9" fill="#878d98"/><circle cx="606.0" cy="490.0" r="4.3" fill="#a9acb4"/><path d="M634.6 526.0 L634.6 537.1 A7.7 4.4 0 0 0 650.0 537.1 L650.0 526.0 Z" fill="url(#g5)"/><ellipse cx="642.3" cy="526.0" rx="7.7" ry="4.4" fill="#595d64"/><circle cx="642.3" cy="515.5" r="8.7" fill="#3b8554"/><circle cx="637.5" cy="519.4" r="6.6" fill="#3f8f5a"/><circle cx="645.0" cy="522.0" r="6.6" fill="#3e8e59"/><path d="M598.0 342.4 L531.6 442.2 A68.4 39.5 0 0 0 668.4 442.2 Z" fill="url(#g12)"/><ellipse cx="600.0" cy="442.2" rx="68.4" ry="39.5" fill="url(#r13)"/><g transform="translate(60 70)"><rect x="3" y="3" width="26" height="26" fill="none" stroke="#fff" stroke-width="3"/><rect x="11" y="11" width="10" height="10" fill="#ff5a1f"/><text x="48" y="26" font-family="Arial Black,Arial,sans-serif" font-weight="900" font-size="24" letter-spacing="3" fill="#fff">STANDFORM</text></g><text x="60" y="360" font-family="Arial Black,Arial,sans-serif" font-weight="900" font-size="66" fill="#fff">Stand out</text><text x="60" y="435" font-family="Arial Black,Arial,sans-serif" font-weight="900" font-size="66" fill="#ff5a1f">before the show</text><text x="60" y="510" font-family="Arial Black,Arial,sans-serif" font-weight="900" font-size="66" fill="#fff">even starts.</text></svg>