<svg xmlns="http://www.w3.org/2000/svg" viewBox="0 0 400 300" width="400" height="300" role="img" aria-label="Dismantling and return"><defs><linearGradient id="g1" x1="0" y1="0" x2="0" y2="1"><stop offset="0" stop-color="#151a22" stop-opacity="1"/><stop offset="1" stop-color="#0b0e13" stop-opacity="1"/></linearGradient><radialGradient id="r2"><stop offset="0" stop-color="#ffffff" stop-opacity="0.2"/><stop offset="1" stop-color="#ffffff" stop-opacity="0"/></radialGradient><radialGradient id="r3"><stop offset="0.55" stop-color="#000" stop-opacity="0"/><stop offset="1" stop-color="#000" stop-opacity="0.45"/></radialGradient></defs><rect width="400" height="300" fill="url(#g1)"/><ellipse cx="32" cy="-12" rx="64" ry="84" fill="url(#r2)"/><ellipse cx="116" cy="-12" rx="64" ry="84" fill="url(#r2)"/><ellipse cx="200" cy="-12" rx="64" ry="84" fill="url(#r2)"/><ellipse cx="284" cy="-12" rx="64" ry="84" fill="url(#r2)"/><ellipse cx="368" cy="-12" rx="64" ry="84" fill="url(#r2)"/><g stroke="#ffffff" stroke-opacity="0.06" stroke-width="1"><line x1="190.1" y1="-122.9" x2="-403.7" y2="220.0"/><line x1="229.7" y1="-100.0" x2="-364.2" y2="242.9"/><line x1="269.3" y1="-77.1" x2="-324.6" y2="265.7"/><line x1="308.9" y1="-54.3" x2="-285.0" y2="288.6"/><line x1="348.5" y1="-31.4" x2="-245.4" y2="311.4"/><line x1="388.1" y1="-8.6" x2="-205.8" y2="334.3"/><line x1="427.6" y1="14.3" x2="-166.2" y2="357.1"/><line x1="467.2" y1="37.1" x2="-126.6" y2="380.0"/><line x1="506.8" y1="60.0" x2="-87.0" y2="402.9"/><line x1="546.4" y1="82.9" x2="-47.4" y2="425.7"/><line x1="586.0" y1="105.7" x2="-7.8" y2="448.6"/><line x1="625.6" y1="128.6" x2="31.7" y2="471.4"/><line x1="665.2" y1="151.4" x2="71.3" y2="494.3"/><line x1="704.8" y1="174.3" x2="110.9" y2="517.1"/><line x1="744.4" y1="197.1" x2="150.5" y2="540.0"/><line x1="783.9" y1="220.0" x2="190.1" y2="562.9"/><line x1="190.1" y1="-122.9" x2="803.7" y2="231.4"/><line x1="150.5" y1="-100.0" x2="764.2" y2="254.3"/><line x1="110.9" y1="-77.1" x2="724.6" y2="277.1"/><line x1="71.3" y1="-54.3" x2="685.0" y2="300.0"/><line x1="31.7" y1="-31.4" x2="645.4" y2="322.9"/><line x1="-7.8" y1="-8.6" x2="605.8" y2="345.7"/><line x1="-47.4" y1="14.3" x2="566.2" y2="368.6"/><line x1="-87.0" y1="37.1" x2="526.6" y2="391.4"/><line x1="-126.6" y1="60.0" x2="487.0" y2="414.3"/><line x1="-166.2" y1="82.9" x2="447.4" y2="437.1"/><line x1="-205.8" y1="105.7" x2="407.8" y2="460.0"/><line x1="-245.4" y1="128.6" x2="368.3" y2="482.9"/><line x1="-285.0" y1="151.4" x2="328.7" y2="505.7"/><line x1="-324.6" y1="174.3" x2="289.1" y2="528.6"/><line x1="-364.2" y1="197.1" x2="249.5" y2="551.4"/><line x1="-403.7" y1="220.0" x2="209.9" y2="574.3"/></g><rect width="400" height="300" fill="url(#r3)"/><polygon points="31.7,223.4 209.9,326.3 209.9,322.9 31.7,220.0" fill="#1c222c" stroke="#1c222c" stroke-width="0.6" stroke-linejoin="round"/><polygon points="368.3,234.9 209.9,326.3 209.9,322.9 368.3,231.4" fill="#13171e" stroke="#13171e" stroke-width="0.6" stroke-linejoin="round"/><polygon points="190.1,128.6 368.3,231.4 209.9,322.9 31.7,220.0" fill="#222a36" stroke="#222a36" stroke-width="0.6" stroke-linejoin="round"/><polygon points="164.4,177.7 198.0,197.1 198.0,167.4 164.4,148.0" fill="#22272f" stroke="#22272f" stroke-width="0.6" stroke-linejoin="round"/><polygon points="223.8,182.3 198.0,197.1 198.0,167.4 223.8,152.6" fill="#171b20" stroke="#171b20" stroke-width="0.6" stroke-linejoin="round"/><polygon points="190.1,133.1 223.8,152.6 198.0,167.4 164.4,148.0" fill="#2f3541" stroke="#2f3541" stroke-width="0.6" stroke-linejoin="round"/><polyline points="164.4,148.0 198.0,167.4 223.8,152.6" fill="none" stroke="#fff" stroke-opacity=".16" stroke-width=".8"/><polygon points="164.4,148.0 198.0,167.4 198.0,161.7 164.4,142.3" fill="#ffc21a" stroke="#ffc21a" stroke-width="0.6" stroke-linejoin="round"/><polygon points="223.8,152.6 198.0,167.4 198.0,161.7 223.8,146.9" fill="#ad8412" stroke="#ad8412" stroke-width="0.6" stroke-linejoin="round"/><polygon points="190.1,127.4 223.8,146.9 198.0,161.7 164.4,142.3" fill="#ffce48" stroke="#ffce48" stroke-width="0.6" stroke-linejoin="round"/><polygon points="202.0,199.4 235.6,218.9 235.6,189.1 202.0,169.7" fill="#22272f" stroke="#22272f" stroke-width="0.6" stroke-linejoin="round"/><polygon points="261.4,204.0 235.6,218.9 235.6,189.1 261.4,174.3" fill="#171b20" stroke="#171b20" stroke-width="0.6" stroke-linejoin="round"/><polygon points="227.7,154.9 261.4,174.3 235.6,189.1 202.0,169.7" fill="#2f3541" stroke="#2f3541" stroke-width="0.6" stroke-linejoin="round"/><polyline points="202.0,169.7 235.6,189.1 261.4,174.3" fill="none" stroke="#fff" stroke-opacity=".16" stroke-width=".8"/><polygon points="202.0,169.7 235.6,189.1 235.6,183.4 202.0,164.0" fill="#ffc21a" stroke="#ffc21a" stroke-width="0.6" stroke-linejoin="round"/><polygon points="261.4,174.3 235.6,189.1 235.6,183.4 261.4,168.6" fill="#ad8412" stroke="#ad8412" stroke-width="0.6" stroke-linejoin="round"/><polygon points="227.7,149.1 261.4,168.6 235.6,183.4 202.0,164.0" fill="#ffce48" stroke="#ffce48" stroke-width="0.6" stroke-linejoin="round"/><polygon points="239.6,221.1 273.2,240.6 273.2,210.9 239.6,191.4" fill="#22272f" stroke="#22272f" stroke-width="0.6" stroke-linejoin="round"/><polygon points="299.0,225.7 273.2,240.6 273.2,210.9 299.0,196.0" fill="#171b20" stroke="#171b20" stroke-width="0.6" stroke-linejoin="round"/><polygon points="265.3,176.6 299.0,196.0 273.2,210.9 239.6,191.4" fill="#2f3541" stroke="#2f3541" stroke-width="0.6" stroke-linejoin="round"/><polyline points="239.6,191.4 273.2,210.9 299.0,196.0" fill="none" stroke="#fff" stroke-opacity=".16" stroke-width=".8"/><polygon points="239.6,191.4 273.2,210.9 273.2,205.1 239.6,185.7" fill="#ffc21a" stroke="#ffc21a" stroke-width="0.6" stroke-linejoin="round"/><polygon points="299.0,196.0 273.2,210.9 273.2,205.1 299.0,190.3" fill="#ad8412" stroke="#ad8412" stroke-width="0.6" stroke-linejoin="round"/><polygon points="265.3,170.9 299.0,190.3 273.2,205.1 239.6,185.7" fill="#ffce48" stroke="#ffce48" stroke-width="0.6" stroke-linejoin="round"/><polygon points="120.8,214.3 200.0,260.0 200.0,250.9 120.8,205.1" fill="#8a6b45" stroke="#8a6b45" stroke-width="0.6" stroke-linejoin="round"/><polygon points="239.6,237.1 200.0,260.0 200.0,250.9 239.6,228.0" fill="#5e492f" stroke="#5e492f" stroke-width="0.6" stroke-linejoin="round"/><polygon points="160.4,182.3 239.6,228.0 200.0,250.9 120.8,205.1" fill="#a1896a" stroke="#a1896a" stroke-width="0.6" stroke-linejoin="round"/><polyline points="120.8,205.1 200.0,250.9 239.6,228.0" fill="none" stroke="#fff" stroke-opacity=".16" stroke-width=".8"/><polygon points="155.5,189.7 222.8,228.6 222.8,189.7 155.5,150.9" fill="#f2f0ea" stroke="#f2f0ea" stroke-width="0.6" stroke-linejoin="round"/><polygon points="227.7,225.7 222.8,228.6 222.8,189.7 227.7,186.9" fill="#a5a39f" stroke="#a5a39f" stroke-width="0.6" stroke-linejoin="round"/><polygon points="160.4,148.0 227.7,186.9 222.8,189.7 155.5,150.9" fill="#f5f3ee" stroke="#f5f3ee" stroke-width="0.6" stroke-linejoin="round"/><polygon points="145.6,195.4 203.0,228.6 203.0,189.7 145.6,156.6" fill="#ff5a1f" stroke="#ff5a1f" stroke-width="0.6" stroke-linejoin="round"/><polygon points="207.9,225.7 203.0,228.6 203.0,189.7 207.9,186.9" fill="#ad3d15" stroke="#ad3d15" stroke-width="0.6" stroke-linejoin="round"/><polygon points="150.5,153.7 207.9,186.9 203.0,189.7 145.6,156.6" fill="#ff7b4c" stroke="#ff7b4c" stroke-width="0.6" stroke-linejoin="round"/><polygon points="135.7,201.1 183.2,228.6 183.2,189.7 135.7,162.3" fill="#cfd3da" stroke="#cfd3da" stroke-width="0.6" stroke-linejoin="round"/><polygon points="188.1,225.7 183.2,228.6 183.2,189.7 188.1,186.9" fill="#8d8f94" stroke="#8d8f94" stroke-width="0.6" stroke-linejoin="round"/><polygon points="140.6,159.4 188.1,186.9 183.2,189.7 135.7,162.3" fill="#d9dce1" stroke="#d9dce1" stroke-width="0.6" stroke-linejoin="round"/><path d="M155.5 182.9 L254.4 240.0M254.4 240.0 L200.0 271.4M200.0 271.4 L101.0 214.3M101.0 214.3 L155.5 182.9M155.5 130.3 L254.4 187.4M254.4 187.4 L200.0 218.9M200.0 218.9 L101.0 161.7M101.0 161.7 L155.5 130.3M155.5 182.9 L155.5 130.3M254.4 240.0 L254.4 187.4M200.0 271.4 L200.0 218.9M101.0 214.3 L101.0 161.7" fill="none" stroke="#ffffff" stroke-opacity="0.3" stroke-width="1" stroke-dasharray="3 4"/></svg>