<svg xmlns="http://www.w3.org/2000/svg" viewBox="0 0 800 600" width="800" height="600" role="img" aria-label="Vantage Motors double-decker stand render"><defs><linearGradient id="g1" x1="0" y1="0" x2="0" y2="1"><stop offset="0" stop-color="#1b1214" stop-opacity="1"/><stop offset="1" stop-color="#0a0708" stop-opacity="1"/></linearGradient><radialGradient id="r2"><stop offset="0" stop-color="#ff8a7a" stop-opacity="0.2"/><stop offset="1" stop-color="#ff8a7a" stop-opacity="0"/></radialGradient><radialGradient id="r3"><stop offset="0.55" stop-color="#000" stop-opacity="0"/><stop offset="1" stop-color="#000" stop-opacity="0.45"/></radialGradient><linearGradient id="g4" x1="0" y1="0" x2="1" y2="1"><stop offset="0" stop-color="#c1121f" stop-opacity="1"/><stop offset="1" stop-color="#ff6b4a" stop-opacity="1"/></linearGradient><linearGradient id="g5" x1="0" y1="0" x2="1" y2="0"><stop offset="0" stop-color="#dfdfdf" stop-opacity="1"/><stop offset="0.55" stop-color="#d8d8d8" stop-opacity="1"/><stop offset="1" stop-color="#828282" stop-opacity="1"/></linearGradient><linearGradient id="g6" x1="0" y1="0" x2="1" y2="0"><stop offset="0" stop-color="#c5beb9" stop-opacity="1"/><stop offset="0.55" stop-color="#b8b0aa" stop-opacity="1"/><stop offset="1" stop-color="#6e6a66" stop-opacity="1"/></linearGradient><linearGradient id="g7" x1="0" y1="0" x2="1" y2="0"><stop offset="0" stop-color="#a09997" stop-opacity="1"/><stop offset="0.55" stop-color="#8b8380" stop-opacity="1"/><stop offset="1" stop-color="#534f4d" stop-opacity="1"/></linearGradient><linearGradient id="g8" x1="0" y1="0" x2="1" y2="0"><stop offset="0" stop-color="#d8d2cd" stop-opacity="1"/><stop offset="0.55" stop-color="#d0c8c2" stop-opacity="1"/><stop offset="1" stop-color="#7d7874" stop-opacity="1"/></linearGradient><linearGradient id="g9" x1="0" y1="0" x2="0" y2="1"><stop offset="0" stop-color="#ffb0a0" stop-opacity="0.24"/><stop offset="1" stop-color="#ffb0a0" stop-opacity="0"/></linearGradient><radialGradient id="r10"><stop offset="0" stop-color="#ffb0a0" stop-opacity="0.264"/><stop offset="1" stop-color="#ffb0a0" stop-opacity="0"/></radialGradient></defs><rect width="800" height="600" fill="url(#g1)"/><ellipse cx="64" cy="-24" rx="128" ry="168" fill="url(#r2)"/><ellipse cx="232" cy="-24" rx="128" ry="168" fill="url(#r2)"/><ellipse cx="400" cy="-24" rx="128" ry="168" fill="url(#r2)"/><ellipse cx="568" cy="-24" rx="128" ry="168" fill="url(#r2)"/><ellipse cx="736" cy="-24" rx="128" ry="168" fill="url(#r2)"/><g stroke="#ffffff" stroke-opacity="0.05" stroke-width="1"><line x1="365.9" y1="57.0" x2="-233.8" y2="403.3"/><line x1="393.2" y1="72.8" x2="-206.5" y2="419.0"/><line x1="420.4" y1="88.5" x2="-179.2" y2="434.8"/><line x1="447.7" y1="104.3" x2="-152.0" y2="450.5"/><line x1="475.0" y1="120.0" x2="-124.7" y2="466.2"/><line x1="502.2" y1="135.7" x2="-97.5" y2="482.0"/><line x1="529.5" y1="151.5" x2="-70.2" y2="497.7"/><line x1="556.7" y1="167.2" x2="-43.0" y2="513.4"/><line x1="584.0" y1="183.0" x2="-15.7" y2="529.2"/><line x1="611.3" y1="198.7" x2="11.6" y2="544.9"/><line x1="638.5" y1="214.4" x2="38.8" y2="560.7"/><line x1="665.8" y1="230.2" x2="66.1" y2="576.4"/><line x1="693.0" y1="245.9" x2="93.3" y2="592.1"/><line x1="720.3" y1="261.6" x2="120.6" y2="607.9"/><line x1="747.5" y1="277.4" x2="147.9" y2="623.6"/><line x1="774.8" y1="293.1" x2="175.1" y2="639.3"/><line x1="802.1" y1="308.9" x2="202.4" y2="655.1"/><line x1="829.3" y1="324.6" x2="229.6" y2="670.8"/><line x1="856.6" y1="340.3" x2="256.9" y2="686.6"/><line x1="883.8" y1="356.1" x2="284.2" y2="702.3"/><line x1="911.1" y1="371.8" x2="311.4" y2="718.0"/><line x1="938.4" y1="387.5" x2="338.7" y2="733.8"/><line x1="965.6" y1="403.3" x2="365.9" y2="749.5"/><line x1="992.9" y1="419.0" x2="393.2" y2="765.2"/><line x1="1020.1" y1="434.8" x2="420.4" y2="781.0"/><line x1="365.9" y1="57.0" x2="1033.8" y2="442.6"/><line x1="338.7" y1="72.8" x2="1006.5" y2="458.4"/><line x1="311.4" y1="88.5" x2="979.2" y2="474.1"/><line x1="284.2" y1="104.3" x2="952.0" y2="489.8"/><line x1="256.9" y1="120.0" x2="924.7" y2="505.6"/><line x1="229.6" y1="135.7" x2="897.5" y2="521.3"/><line x1="202.4" y1="151.5" x2="870.2" y2="537.0"/><line x1="175.1" y1="167.2" x2="843.0" y2="552.8"/><line x1="147.9" y1="183.0" x2="815.7" y2="568.5"/><line x1="120.6" y1="198.7" x2="788.4" y2="584.3"/><line x1="93.3" y1="214.4" x2="761.2" y2="600.0"/><line x1="66.1" y1="230.2" x2="733.9" y2="615.7"/><line x1="38.8" y1="245.9" x2="706.7" y2="631.5"/><line x1="11.6" y1="261.6" x2="679.4" y2="647.2"/><line x1="-15.7" y1="277.4" x2="652.1" y2="663.0"/><line x1="-43.0" y1="293.1" x2="624.9" y2="678.7"/><line x1="-70.2" y1="308.9" x2="597.6" y2="694.4"/><line x1="-97.5" y1="324.6" x2="570.4" y2="710.2"/><line x1="-124.7" y1="340.3" x2="543.1" y2="725.9"/><line x1="-152.0" y1="356.1" x2="515.8" y2="741.6"/><line x1="-179.2" y1="371.8" x2="488.6" y2="757.4"/><line x1="-206.5" y1="387.5" x2="461.3" y2="773.1"/><line x1="-233.8" y1="403.3" x2="434.1" y2="788.9"/></g><rect width="800" height="600" fill="url(#r3)"/><polygon points="25.2,406.4 434.1,642.5 434.1,639.3 25.2,403.3" fill="#241a1c" stroke="#241a1c" stroke-width="0.6" stroke-linejoin="round"/><polygon points="774.8,445.8 434.1,642.5 434.1,639.3 774.8,442.6" fill="#181213" stroke="#181213" stroke-width="0.6" stroke-linejoin="round"/><polygon points="365.9,206.6 774.8,442.6 434.1,639.3 25.2,403.3" fill="#2b2022" stroke="#2b2022" stroke-width="0.6" stroke-linejoin="round"/><polygon points="93.3,403.3 434.1,600.0 434.1,596.1 93.3,399.3" fill="#34292b" stroke="#34292b" stroke-width="0.6" stroke-linejoin="round"/><polygon points="706.7,442.6 434.1,600.0 434.1,596.1 706.7,438.7" fill="#231c1d" stroke="#231c1d" stroke-width="0.6" stroke-linejoin="round"/><polygon points="365.9,242.0 706.7,438.7 434.1,596.1 93.3,399.3" fill="#3a2f31" stroke="#3a2f31" stroke-width="0.6" stroke-linejoin="round"/><polyline points="93.3,399.3 434.1,596.1 706.7,438.7" fill="none" stroke="#fff" stroke-opacity=".16" stroke-width=".8"/><polygon points="229.6,304.9 233.7,307.3 233.7,259.3 229.6,256.9" fill="#7d868f" stroke="#7d868f" stroke-width="0.6" stroke-linejoin="round"/><polygon points="237.8,304.9 233.7,307.3 233.7,259.3 237.8,256.9" fill="#555b61" stroke="#555b61" stroke-width="0.6" stroke-linejoin="round"/><polygon points="233.7,254.6 237.8,256.9 233.7,259.3 229.6,256.9" fill="#979ea5" stroke="#979ea5" stroke-width="0.6" stroke-linejoin="round"/><polygon points="113.8,399.3 434.1,584.3 434.1,583.5 113.8,398.6" fill="#100b0c" stroke="#100b0c" stroke-width="0.6" stroke-linejoin="round"/><polygon points="686.2,438.7 434.1,584.3 434.1,583.5 686.2,437.9" fill="#0b0708" stroke="#0b0708" stroke-width="0.6" stroke-linejoin="round"/><polygon points="365.9,253.0 686.2,437.9 434.1,583.5 113.8,398.6" fill="#1e1a1b" stroke="#1e1a1b" stroke-width="0.6" stroke-linejoin="round"/><polygon points="107.0,398.6 112.4,401.7 112.4,335.6 107.0,332.5" fill="#241a1c" stroke="#241a1c" stroke-width="0.6" stroke-linejoin="round"/><polygon points="371.4,252.2 112.4,401.7 112.4,335.6 371.4,186.1" fill="#181213" stroke="#181213" stroke-width="0.6" stroke-linejoin="round"/><polygon points="365.9,183.0 371.4,186.1 112.4,335.6 107.0,332.5" fill="#504849" stroke="#504849" stroke-width="0.6" stroke-linejoin="round"/><polyline points="107.0,332.5 112.4,335.6 371.4,186.1" fill="none" stroke="#fff" stroke-opacity=".16" stroke-width=".8"/><polygon points="360.5,252.2 687.6,441.0 687.6,375.0 360.5,186.1" fill="#241a1c" stroke="#241a1c" stroke-width="0.6" stroke-linejoin="round"/><polygon points="693.0,437.9 687.6,441.0 687.6,375.0 693.0,371.8" fill="#181213" stroke="#181213" stroke-width="0.6" stroke-linejoin="round"/><polygon points="365.9,183.0 693.0,371.8 687.6,375.0 360.5,186.1" fill="#504849" stroke="#504849" stroke-width="0.6" stroke-linejoin="round"/><polyline points="360.5,186.1 687.6,375.0 693.0,371.8" fill="none" stroke="#fff" stroke-opacity=".16" stroke-width=".8"/><g opacity="0.85"><polygon points="398.0,257.1 493.1,312.0 493.1,308.4 398.0,253.5" fill="#fff" stroke="#fff" stroke-width="0.6" stroke-linejoin="round"/></g><g opacity="0.85"><polygon points="398.0,246.7 600.0,363.3 600.0,359.8 398.0,243.1" fill="#fff" stroke="#fff" stroke-width="0.6" stroke-linejoin="round"/></g><g opacity="0.85"><polygon points="398.0,236.2 587.4,345.6 587.4,342.1 398.0,232.7" fill="#fff" stroke="#fff" stroke-width="0.6" stroke-linejoin="round"/></g><polygon points="374.0,252.2 673.9,425.4 673.9,375.0 374.0,201.9" fill="url(#g4)" stroke="none" stroke-width="0.6" stroke-linejoin="round"/><polygon points="297.8,344.3 301.9,346.6 301.9,298.6 297.8,296.3" fill="#7d868f" stroke="#7d868f" stroke-width="0.6" stroke-linejoin="round"/><polygon points="306.0,344.3 301.9,346.6 301.9,298.6 306.0,296.3" fill="#555b61" stroke="#555b61" stroke-width="0.6" stroke-linejoin="round"/><polygon points="301.9,293.9 306.0,296.3 301.9,298.6 297.8,296.3" fill="#979ea5" stroke="#979ea5" stroke-width="0.6" stroke-linejoin="round"/><path d="M221.9 370.2 L221.9 403.3 A7.7 4.5 0 0 0 237.3 403.3 L237.3 370.2 Z" fill="url(#g6)"/><ellipse cx="229.6" cy="370.2" rx="7.7" ry="4.5" fill="#bfb8b2"/><circle cx="229.6" cy="365.9" r="4.9" fill="#d1ccc8"/><path d="M480.9 378.1 L480.9 411.1 A7.7 4.5 0 0 0 496.3 411.1 L496.3 378.1 Z" fill="url(#g8)"/><ellipse cx="488.6" cy="378.1" rx="7.7" ry="4.5" fill="#d5cec8"/><circle cx="488.6" cy="373.8" r="4.9" fill="#e0dbd7"/><path d="M292.8 416.7 L292.8 422.2 A86.7 50.1 0 0 0 466.3 422.2 L466.3 416.7 Z" fill="url(#g5)"/><ellipse cx="379.6" cy="416.7" rx="86.7" ry="50.1" fill="#efefef"/><polygon points="318.2,399.3 406.8,450.5 406.8,442.6 318.2,391.5" fill="#101215" stroke="#101215" stroke-width="0.6" stroke-linejoin="round"/><polygon points="440.9,430.8 406.8,450.5 406.8,442.6 440.9,423.0" fill="#0b0c0e" stroke="#0b0c0e" stroke-width="0.6" stroke-linejoin="round"/><polygon points="352.3,371.8 440.9,423.0 406.8,442.6 318.2,391.5" fill="#404144" stroke="#404144" stroke-width="0.6" stroke-linejoin="round"/><polygon points="365.9,383.6 370.0,386.0 370.0,338.0 365.9,335.6" fill="#7d868f" stroke="#7d868f" stroke-width="0.6" stroke-linejoin="round"/><polygon points="374.1,383.6 370.0,386.0 370.0,338.0 374.1,335.6" fill="#555b61" stroke="#555b61" stroke-width="0.6" stroke-linejoin="round"/><polygon points="370.0,333.2 374.1,335.6 370.0,338.0 365.9,335.6" fill="#979ea5" stroke="#979ea5" stroke-width="0.6" stroke-linejoin="round"/><polygon points="311.4,393.8 406.8,448.9 406.8,435.5 311.4,380.5" fill="#c1121f" stroke="#c1121f" stroke-width="0.6" stroke-linejoin="round"/><polygon points="447.7,425.3 406.8,448.9 406.8,435.5 447.7,411.9" fill="#830c15" stroke="#830c15" stroke-width="0.6" stroke-linejoin="round"/><polygon points="352.3,356.9 447.7,411.9 406.8,435.5 311.4,380.5" fill="#cd414c" stroke="#cd414c" stroke-width="0.6" stroke-linejoin="round"/><polyline points="311.4,380.5 406.8,435.5 447.7,411.9" fill="none" stroke="#fff" stroke-opacity=".16" stroke-width=".8"/><g transform="matrix(0.8660 0.5000 0 1 329.0 403.4)"><circle r="9.0" fill="#0b0c0e"/><circle r="4.3" fill="#6c727d"/></g><polygon points="340.7,391.9 385.7,417.8 385.7,406.0 340.7,380.1" fill="#c62531" stroke="#c62531" stroke-width="0.6" stroke-linejoin="round"/><polygon points="417.0,399.7 385.7,417.8 385.7,406.0 417.0,387.9" fill="#871921" stroke="#871921" stroke-width="0.6" stroke-linejoin="round"/><polygon points="372.1,362.0 417.0,387.9 385.7,406.0 340.7,380.1" fill="#d1515a" stroke="#d1515a" stroke-width="0.6" stroke-linejoin="round"/><polyline points="340.7,380.1 385.7,406.0 417.0,387.9" fill="none" stroke="#fff" stroke-opacity=".16" stroke-width=".8"/><polygon points="345.3,393.5 381.5,414.4 381.5,405.3 345.3,384.5" fill="#0f141b" stroke="#0f141b" stroke-width="0.6" stroke-linejoin="round"/><polygon points="434.1,423.0 438.2,425.3 438.2,377.3 434.1,375.0" fill="#7d868f" stroke="#7d868f" stroke-width="0.6" stroke-linejoin="round"/><polygon points="442.3,423.0 438.2,425.3 438.2,377.3 442.3,375.0" fill="#555b61" stroke="#555b61" stroke-width="0.6" stroke-linejoin="round"/><polygon points="438.2,372.6 442.3,375.0 438.2,377.3 434.1,375.0" fill="#979ea5" stroke="#979ea5" stroke-width="0.6" stroke-linejoin="round"/><g transform="matrix(0.8660 0.5000 0 1 389.0 438.0)"><circle r="9.0" fill="#0b0c0e"/><circle r="4.3" fill="#6c727d"/></g><polygon points="502.2,462.3 506.3,464.7 506.3,416.7 502.2,414.3" fill="#7d868f" stroke="#7d868f" stroke-width="0.6" stroke-linejoin="round"/><polygon points="510.4,462.3 506.3,464.7 506.3,416.7 510.4,414.3" fill="#555b61" stroke="#555b61" stroke-width="0.6" stroke-linejoin="round"/><polygon points="506.3,411.9 510.4,414.3 506.3,416.7 502.2,414.3" fill="#979ea5" stroke="#979ea5" stroke-width="0.6" stroke-linejoin="round"/><polygon points="229.6,256.9 570.4,453.6 570.4,448.9 229.6,252.2" fill="#2b2022" stroke="#2b2022" stroke-width="0.6" stroke-linejoin="round"/><polygon points="706.7,375.0 570.4,453.6 570.4,448.9 706.7,370.2" fill="#1d1617" stroke="#1d1617" stroke-width="0.6" stroke-linejoin="round"/><polygon points="365.9,173.5 706.7,370.2 570.4,448.9 229.6,252.2" fill="#3a2f31" stroke="#3a2f31" stroke-width="0.6" stroke-linejoin="round"/><polyline points="229.6,252.2 570.4,448.9 706.7,370.2" fill="none" stroke="#fff" stroke-opacity=".16" stroke-width=".8"/><polygon points="360.5,176.7 701.2,373.4 701.2,334.0 360.5,137.3" fill="#3a2f31" stroke="#3a2f31" stroke-width="0.6" stroke-linejoin="round"/><polygon points="706.7,370.2 701.2,373.4 701.2,334.0 706.7,330.9" fill="#272021" stroke="#272021" stroke-width="0.6" stroke-linejoin="round"/><polygon points="365.9,134.2 706.7,330.9 701.2,334.0 360.5,137.3" fill="#61595a" stroke="#61595a" stroke-width="0.6" stroke-linejoin="round"/><polyline points="360.5,137.3 701.2,334.0 706.7,330.9" fill="none" stroke="#fff" stroke-opacity=".16" stroke-width=".8"/><polygon points="338.7,212.9 406.8,252.2 406.8,234.9 338.7,195.5" fill="#c1121f" stroke="#c1121f" stroke-width="0.6" stroke-linejoin="round"/><polygon points="434.1,236.5 406.8,252.2 406.8,234.9 434.1,219.1" fill="#830c15" stroke="#830c15" stroke-width="0.6" stroke-linejoin="round"/><polygon points="365.9,179.8 434.1,219.1 406.8,234.9 338.7,195.5" fill="#e04b3b" stroke="#e04b3b" stroke-width="0.6" stroke-linejoin="round"/><polyline points="338.7,195.5 406.8,234.9 434.1,219.1" fill="none" stroke="#fff" stroke-opacity=".16" stroke-width=".8"/><polygon points="427.3,279.7 461.3,299.4 461.3,286.8 427.3,267.1" fill="#ffffff" stroke="#ffffff" stroke-width="0.6" stroke-linejoin="round"/><polygon points="495.4,279.7 461.3,299.4 461.3,286.8 495.4,267.1" fill="#adadad" stroke="#adadad" stroke-width="0.6" stroke-linejoin="round"/><polygon points="461.3,247.5 495.4,267.1 461.3,286.8 427.3,267.1" fill="#ffffff" stroke="#ffffff" stroke-width="0.6" stroke-linejoin="round"/><polyline points="427.3,267.1 461.3,286.8 495.4,267.1" fill="none" stroke="#fff" stroke-opacity=".16" stroke-width=".8"/><polygon points="522.7,319.1 590.8,358.4 590.8,341.1 522.7,301.8" fill="#c1121f" stroke="#c1121f" stroke-width="0.6" stroke-linejoin="round"/><polygon points="618.1,342.7 590.8,358.4 590.8,341.1 618.1,325.4" fill="#830c15" stroke="#830c15" stroke-width="0.6" stroke-linejoin="round"/><polygon points="549.9,286.0 618.1,325.4 590.8,341.1 522.7,301.8" fill="#e04b3b" stroke="#e04b3b" stroke-width="0.6" stroke-linejoin="round"/><polyline points="522.7,301.8 590.8,341.1 618.1,325.4" fill="none" stroke="#fff" stroke-opacity=".16" stroke-width=".8"/><g opacity="0.28"><polygon points="231.7,251.0 572.4,447.7 572.4,422.6 231.7,225.8" fill="#9fd2e8" stroke="#9fd2e8" stroke-width="0.6" stroke-linejoin="round"/><polygon points="574.5,446.6 572.4,447.7 572.4,422.6 574.5,421.4" fill="#6c8f9e" stroke="#6c8f9e" stroke-width="0.6" stroke-linejoin="round"/><polygon points="233.7,224.7 574.5,421.4 572.4,422.6 231.7,225.8" fill="#b2dbed" stroke="#b2dbed" stroke-width="0.6" stroke-linejoin="round"/></g><path d="M392.3 452.9 L392.3 485.9 A7.7 4.5 0 0 0 407.7 485.9 L407.7 452.9 Z" fill="url(#g7)"/><ellipse cx="400.0" cy="452.9" rx="7.7" ry="4.5" fill="#978f8d"/><circle cx="400.0" cy="448.5" r="4.9" fill="#b4aeac"/><ellipse cx="379.6" cy="356.1" rx="96.4" ry="55.6" fill="none" stroke="#fff" stroke-width="2.8"/><ellipse cx="379.6" cy="357.0" rx="96.4" ry="55.6" fill="none" stroke="#ff6b4a" stroke-width="0.7" stroke-opacity=".9"/><polygon points="229.6,212.9 570.4,409.6 570.4,397.0 229.6,200.3" fill="#c1121f" stroke="#c1121f" stroke-width="0.6" stroke-linejoin="round"/><polygon points="706.7,330.9 570.4,409.6 570.4,397.0 706.7,318.3" fill="#830c15" stroke="#830c15" stroke-width="0.6" stroke-linejoin="round"/><polygon points="365.9,121.6 706.7,318.3 570.4,397.0 229.6,200.3" fill="#e04b3b" stroke="#e04b3b" stroke-width="0.6" stroke-linejoin="round"/><polyline points="229.6,200.3 570.4,397.0 706.7,318.3" fill="none" stroke="#fff" stroke-opacity=".16" stroke-width=".8"/><text transform="matrix(0.8660 0.5000 0 1 243.2 217.6)" font-family="Arial,Helvetica,sans-serif" font-size="10.2" font-weight="900" fill="#fff" text-anchor="start" letter-spacing="1.6">VANTAGE MOTORS</text><polygon points="471.6,502.8 512.4,526.4 512.4,519.3 471.6,495.7" fill="#c9c1bb" stroke="#c9c1bb" stroke-width="0.6" stroke-linejoin="round"/><polygon points="522.7,520.5 512.4,526.4 512.4,519.3 522.7,513.4" fill="#89837f" stroke="#89837f" stroke-width="0.6" stroke-linejoin="round"/><polygon points="481.8,489.8 522.7,513.4 512.4,519.3 471.6,495.7" fill="#d4cdc9" stroke="#d4cdc9" stroke-width="0.6" stroke-linejoin="round"/><polygon points="462.7,502.4 503.6,526.0 503.6,519.0 462.7,495.3" fill="#c9c1bb" stroke="#c9c1bb" stroke-width="0.6" stroke-linejoin="round"/><polygon points="513.8,520.1 503.6,526.0 503.6,519.0 513.8,513.0" fill="#89837f" stroke="#89837f" stroke-width="0.6" stroke-linejoin="round"/><polygon points="472.9,489.4 513.8,513.0 503.6,519.0 462.7,495.3" fill="#d4cdc9" stroke="#d4cdc9" stroke-width="0.6" stroke-linejoin="round"/><polygon points="453.8,502.0 494.7,525.6 494.7,518.6 453.8,495.0" fill="#c9c1bb" stroke="#c9c1bb" stroke-width="0.6" stroke-linejoin="round"/><polygon points="504.9,519.7 494.7,525.6 494.7,518.6 504.9,512.7" fill="#89837f" stroke="#89837f" stroke-width="0.6" stroke-linejoin="round"/><polygon points="464.1,489.0 504.9,512.7 494.7,518.6 453.8,495.0" fill="#d4cdc9" stroke="#d4cdc9" stroke-width="0.6" stroke-linejoin="round"/><polygon points="445.0,501.6 485.9,525.2 485.9,518.2 445.0,494.6" fill="#c9c1bb" stroke="#c9c1bb" stroke-width="0.6" stroke-linejoin="round"/><polygon points="496.1,519.3 485.9,525.2 485.9,518.2 496.1,512.3" fill="#89837f" stroke="#89837f" stroke-width="0.6" stroke-linejoin="round"/><polygon points="455.2,488.7 496.1,512.3 485.9,518.2 445.0,494.6" fill="#d4cdc9" stroke="#d4cdc9" stroke-width="0.6" stroke-linejoin="round"/><polygon points="436.1,501.2 477.0,524.9 477.0,517.8 436.1,494.2" fill="#c9c1bb" stroke="#c9c1bb" stroke-width="0.6" stroke-linejoin="round"/><polygon points="487.2,519.0 477.0,524.9 477.0,517.8 487.2,511.9" fill="#89837f" stroke="#89837f" stroke-width="0.6" stroke-linejoin="round"/><polygon points="446.3,488.3 487.2,511.9 477.0,517.8 436.1,494.2" fill="#d4cdc9" stroke="#d4cdc9" stroke-width="0.6" stroke-linejoin="round"/><polygon points="427.3,500.9 468.1,524.5 468.1,517.4 427.3,493.8" fill="#c9c1bb" stroke="#c9c1bb" stroke-width="0.6" stroke-linejoin="round"/><polygon points="478.4,518.6 468.1,524.5 468.1,517.4 478.4,511.5" fill="#89837f" stroke="#89837f" stroke-width="0.6" stroke-linejoin="round"/><polygon points="437.5,487.9 478.4,511.5 468.1,517.4 427.3,493.8" fill="#d4cdc9" stroke="#d4cdc9" stroke-width="0.6" stroke-linejoin="round"/><polygon points="418.4,500.5 459.3,524.1 459.3,517.0 418.4,493.4" fill="#c9c1bb" stroke="#c9c1bb" stroke-width="0.6" stroke-linejoin="round"/><polygon points="469.5,518.2 459.3,524.1 459.3,517.0 469.5,511.1" fill="#89837f" stroke="#89837f" stroke-width="0.6" stroke-linejoin="round"/><polygon points="428.6,487.5 469.5,511.1 459.3,517.0 418.4,493.4" fill="#d4cdc9" stroke="#d4cdc9" stroke-width="0.6" stroke-linejoin="round"/><polygon points="409.5,500.1 450.4,523.7 450.4,516.6 409.5,493.0" fill="#c9c1bb" stroke="#c9c1bb" stroke-width="0.6" stroke-linejoin="round"/><polygon points="460.7,517.8 450.4,523.7 450.4,516.6 460.7,510.7" fill="#89837f" stroke="#89837f" stroke-width="0.6" stroke-linejoin="round"/><polygon points="419.8,487.1 460.7,510.7 450.4,516.6 409.5,493.0" fill="#d4cdc9" stroke="#d4cdc9" stroke-width="0.6" stroke-linejoin="round"/><polygon points="400.7,499.7 441.6,523.3 441.6,516.2 400.7,492.6" fill="#c9c1bb" stroke="#c9c1bb" stroke-width="0.6" stroke-linejoin="round"/><polygon points="451.8,517.4 441.6,523.3 441.6,516.2 451.8,510.3" fill="#89837f" stroke="#89837f" stroke-width="0.6" stroke-linejoin="round"/><polygon points="410.9,486.7 451.8,510.3 441.6,516.2 400.7,492.6" fill="#d4cdc9" stroke="#d4cdc9" stroke-width="0.6" stroke-linejoin="round"/><polygon points="391.8,499.3 432.7,522.9 432.7,515.8 391.8,492.2" fill="#c9c1bb" stroke="#c9c1bb" stroke-width="0.6" stroke-linejoin="round"/><polygon points="442.9,517.0 432.7,522.9 432.7,515.8 442.9,509.9" fill="#89837f" stroke="#89837f" stroke-width="0.6" stroke-linejoin="round"/><polygon points="402.0,486.3 442.9,509.9 432.7,515.8 391.8,492.2" fill="#d4cdc9" stroke="#d4cdc9" stroke-width="0.6" stroke-linejoin="round"/><path d="M377.6 324.6 L302.5 426.1 A77.1 44.5 0 0 0 456.7 426.1 Z" fill="url(#g9)"/><ellipse cx="379.6" cy="426.1" rx="77.1" ry="44.5" fill="url(#r10)"/></svg>